<svg xmlns="http://www.w3.org/2000/svg" width="336" height="314" fill="none">
  <g filter="url(#a)">
    <path d="M243.204 30.498c-.416-.794-.665-2.38 1.662-2.38.668 0 2.909 0 4.987.396 2.493.265 7.73 1.27 8.727 3.174 1.801 1.852 5.486 6.19 9.143 13.49 1.108 1.587 4.405 6.983 5.402 11.11-.277.529-2.244 1.904-7.896 3.174-1.108.529-3.906.873-6.233-1.984-4.018-6.348-12.8-20.632-15.792-26.98Z" fill="url(#b)"/>
    <g filter="url(#c)">
      <path d="M295.968 265.801c9.166-12.357 18.001-32.584 20.181-53.572 2.181-20.988-.886-40.744-6.655-54.666-5.769-13.922-14.455-26.641-16.654-30.126-2.257-3.488-4.893-6.422-4.893-6.422s6.582-7.613 8.347-14.428c1.765-6.816-.183-17.095-3.123-21.953-2.937-4.916-8.204-9.803-12.505-12.091-4.301-2.288-7.415-2.828-7.415-2.828s6.499-3.924 13.324-13.888c7.33-10.682 8.818-18.843 8.818-18.843s-6.597 7.9-15.763 12.697c-9.166 4.797-19.193 6.134-19.193 6.134s9.179-6.123 15.721-17.316c7.374-12.584 8.039-21.662 8.039-21.662s-5.363 7.689-18.597 15.58c-11.791 7.056-18.709 7.953-18.709 7.953s-11.815-11.933-26.525-15.504c-14.711-3.571-36.203-2.313-52.225 9.79-16.57 12.532-21.524 26.652-23.685 42.966-2.161 16.314-1.468 27.207-1.468 27.207s-8.81 2.51-20.066 1.809c-11.257-.701-33.862-3.609-56.474-17.196C48.122 78.432 39.113 70.6 30.343 62.665c-8.77-7.934-14.8-15.928-14.8-15.928s-5.172 19.243.822 44.088c7.574 31.176 30.592 44.787 30.592 44.787s-8.958-.154-16.974-3.712c-8.017-3.558-14.874-9.18-14.874-9.18s-1.922 22.678 18.953 41.466c15.548 13.954 37.844 18.286 37.844 18.286s-5.032 2.63-15.504 2.497c-10.878-.158-19.157-4.252-19.157-4.252s6.672 18.769 30.738 31.291c16.536 8.591 37.841 10.784 37.841 10.784S93.545 238.88 66.761 247.6c-21.867 7.122-48.452 4.6-48.452 4.6s16.826 18.305 53.818 22.168c30.858 3.191 56.398-7.28 56.398-7.28s18.177 24.564 53.53 30.748c25.49 4.474 39.724 1.782 63.542-2.679 23.819-4.461 41.207-17.056 50.371-29.356Z" fill="url(#d)"/>
    </g>
    <path d="M307.775 124.423c-.409-.952-2.07-3.31-3.128-4.067a53.165 53.165 0 0 0-1.785-1.21C302.739 118.5 302 117 302 117s-.766-1.772-1.746-2.873c-.98-1.101-4.754-4.627-4.754-4.627s-3.031 4.872-4.161 6.372l-.742.982c-1.181 1.56-2.712 3.574-2.712 3.574l-7.308 20.049-16.629 12.782-24.996.059-13.925-9.855s-2.996-1.334-3.74-1.493c-.741-.217-1.829-.454-1.829-.454l-19.23-16.368-2.717-1.144-1.939-.576-5.642-3.691-15.062-7.253-3.234-1.231-4.153-3.373-5.06-2.729-14.426-7.216-3.667-14.77L145 74.5s-2.134-.12-4.554.61c-2.42.73-4.937 2.15-6.096 3.127-1.1.98-1.902 1.803-1.902 1.803s-4.643 1.065-6.459 3.396c-1.817 2.33-3.504 5.422-3.909 8.415-.406 2.992 1.642 12.68 1.642 12.68l2.479 9.25s1.646 4.619 2.803 5.672c1.098 1.05 3.557 2.642 5.359 2.573 1.798-.012 2.679-.193 2.679-.193l6.047 3.714 14.184 7.376 2.571.671 1.846.165 19.32 9.82 3.522 1.248 1.653.502 15.579 12.328 3.674 2.649.381.428.98 2.087c.31.656 4.062 2.961 4.062 2.961l15.741 10.541s4.068 2.845 5.458 2.868c1.39.022 4.13-.225 4.13-.225l3.077.933 7.203-.337 2.216-.103 10.201-.917 1.752-.217 1.752-.218 4.819-1.112s3.557.67 4.556.438c.999-.232 4.778-1.405 6.239-2.596 1.461-1.192 15.114-11.652 15.114-11.652l2.699-3.555.683-.772s2.307-.795 3.173-1.73c.866-.936 2.326-3.113 2.815-4.535.43-1.425 3.94-14.967 3.94-14.967l1.533-8.437c.231.014.221-3.815-.187-4.766Zm-173.948-21.162c-.635.95-.769 2.276-.769 2.276l-1.837-9.51s.733 3.796 2.098 5.001c1.241.594 2.394.719 2.394.719s-1.254.623-1.886 1.514Zm24.11 14.215c-.434 1.483-.903 5.574-.903 5.574l-11.131-6.039s3.119-1.791 3.648-2.921c.533-1.187.894-4.414.894-4.414l9.577 4.847c-.058-.003-1.651 1.471-2.085 2.953Zm24.809 13.154c-.485 1.364-.645 5.124-.645 5.124l-10.499-5.944s2.154-2.137 2.459-3.395c.362-1.255 1.06-4.289 1.06-4.289l10.525 4.496c.003-.057-2.415 2.644-2.9 4.008Zm23.632 15.463c-.604 1.415-1.064 4.347-1.064 4.347l-9.998-8.584s2.531-1.651 3.064-2.838c.532-1.187 1.479-3.51 1.479-3.51l8.623 7.286c.004-.058-1.501 1.884-2.104 3.299Zm23.462 16.382c-1.035 2.84-.066 6.144-.066 6.144l-11.419-8.086s1.969-2.169 2.646-3.033c.616-.787 1.655-4.141 1.655-4.141l8.258 5.582c.055.061-.04.694-1.074 3.534Zm23.249 5.059c-2.563.2-6.27 2.131-6.27 2.131l.939-3.194-.51-4.205 10.561-.142s-.049 2.839.282 4.135c.331 1.295 1.18 3.664 1.18 3.664s-3.616-2.646-6.182-2.389Zm23.413-.788s.017-4.291-.994-5.857a126.817 126.817 0 0 1-2.015-3.249l6.808-5.405s1.192 2.447 2.243 3.32c1.218.998 3.871 3.24 3.871 3.24l-9.913 7.951Zm20.112-22.845s-2.344-2.572-3.079-2.905c-.734-.332-2.918-1.677-2.918-1.677l3.163-10.374 4.276 7.296-1.442 7.66Z" fill="url(#e)"/>
    <path d="m280.577 140.477 7.308-20.049s1.531-2.014 2.712-3.574m-10.02 23.623-16.629 12.782m16.629-12.782c3.705-3.044 8.237-2.04 10.04-1.158m-26.669 13.94-24.996.059m24.996-.059c-1.528 1.216-4.894 4.691-6.139 8.865m-18.857-8.806-13.925-9.855s-2.996-1.334-3.74-1.493c-.741-.217-1.829-.454-1.829-.454m19.494 11.802c4.595 2.66 7.445 7.074 8.296 8.948m-27.79-20.75-19.23-16.368-2.717-1.144-1.939-.576m23.886 18.088c-2.428-.481-8.021-.898-10.976 1.278m-12.91-19.366-5.642-3.691-15.062-7.253-3.234-1.231m23.938 12.175c3.617 3.226 4.365 9.397 4.287 12.08m-28.225-24.255-4.153-3.373-5.06-2.729-14.426-7.216m23.639 13.318c-2.552-.331-6.453-1.511-11.612 3.27m-12.027-16.588-3.667-14.77m3.667 14.77 2.45 11.741m-6.117-26.511L145 74.5s-2.134-.12-4.554.61c-2.42.73-4.937 2.15-6.096 3.127-1.1.98-1.902 1.803-1.902 1.803m11.88 3.125c-6.178 2.55-6.404 7.18-5.745 9.176l2.31 9.389m-8.445-21.69s-4.643 1.065-6.459 3.396c-1.817 2.33-3.504 5.422-3.909 8.415-.406 2.992 1.642 12.68 1.642 12.68l2.479 9.25s1.646 4.619 2.803 5.672c1.098 1.05 3.557 2.642 5.359 2.573 1.798-.012 2.679-.193 2.679-.193m-4.594-41.793c-3.995 4.665-2.162 13.582-1.227 15.986m5.821 25.807 6.047 3.714 14.184 7.376 2.571.671 1.846.165m-24.648-11.926c-2.063-2.54-5.747-9.355-3.984-16.296m28.632 28.222 19.32 9.82 3.522 1.248 1.653.502m-24.495-11.57c6.363.26 9.26-2.524 9.912-3.949m14.583 15.519 15.579 12.328 3.674 2.649.381.428m-19.634-15.405c-1.293-1.409-3.919-5.296-4.084-9.575m23.718 24.98.98 2.087c.31.656 4.062 2.961 4.062 2.961l15.741 10.541s4.068 2.845 5.458 2.868c1.39.022 4.13-.225 4.13-.225m-30.371-18.232c5.404 2.286 10.609.819 12.536-.201m17.835 18.433 3.077.933 7.203-.337m-10.28-.596c-1.613-1.629-5.155-5.979-6.416-10.347m37.436 8.376-4.819 1.112-1.752.218m6.571-1.33s3.557.67 4.556.438c.999-.232 4.778-1.405 6.239-2.596 1.461-1.192 15.114-11.652 15.114-11.652l2.699-3.555.683-.772m-29.291 18.137c9.251-.889 8.704-7.358 9.292-10.249m19.999-7.888s2.307-.795 3.173-1.73c.866-.936 2.326-3.113 2.815-4.535.43-1.425 3.94-14.967 3.94-14.967l1.533-8.437c.231.014.221-3.815-.187-4.766-.409-.952-2.07-3.31-3.128-4.067a53.165 53.165 0 0 0-1.785-1.21m-6.361 39.712c-1.29.579-5.113 1.379-10.086-.063m-153.357-53.258s.134-1.326.769-2.276c.632-.891 1.886-1.514 1.886-1.514m-2.655 3.79-1.837-9.51m0 0s.733 3.796 2.098 5.001c1.241.594 2.394.719 2.394.719m0 0c1.88-.355 4.237-.16 5.18-.017m16.141 21.32s.469-4.091.903-5.574c.434-1.482 2.027-2.956 2.085-2.953m-2.988 8.527-11.131-6.039m11.131 6.039c3.884 2.359 6.92 1.11 7.952.191l3.097-2.757c3.029-1.587 5.235.89 7.038 1.642m-29.218-5.115s3.119-1.791 3.648-2.921c.533-1.187.894-4.414.894-4.414m-4.542 7.335c-1.917-.361-5.696-2.02-5.479-5.767l.755-2.893c.654-1.137.755-2.893.256-4.417l-.542-2.204m9.552 7.946 9.577 4.847m22.079 21.231s.16-3.76.645-5.124c.485-1.364 2.903-4.065 2.9-4.008m-3.545 9.132-10.499-5.944m0 0s2.154-2.137 2.459-3.395c.362-1.255 1.06-4.289 1.06-4.289m0 0 10.525 4.496m0 0c4.852 1.354 5.885 4.815 5.794 6.376-.136 2.341.175 3.73.348 4.132.333 2.368 2.491 4.138 3.528 4.726m9.998 8.584s.46-2.932 1.064-4.347c.603-1.415 2.108-3.357 2.104-3.299m-3.168 7.646-9.998-8.584m9.998 8.584c3.406 3.334 7.102 2.374 8.525 1.478 2.477-2.206 6.91.041 8.817 1.441m-27.34-11.503s2.531-1.651 3.064-2.838c.532-1.187 1.479-3.51 1.479-3.51m0 0 8.623 7.286m21.292 25.825s-.969-3.304.066-6.144c1.034-2.84 1.129-3.473 1.074-3.534m-1.14 9.678-11.419-8.086m0 0s1.969-2.169 2.646-3.033c.616-.787 1.655-4.141 1.655-4.141m0 0 8.258 5.582m0 0 5.785 3.931c1.802 1.33 2.14 3.613 2.083 4.589-.163 2.81 3.309 3.716 5.065 3.818.743.043 1.331-.11 1.783-.347m1.189-1.267s3.707-1.931 6.27-2.131c2.566-.257 6.182 2.389 6.182 2.389m-12.452-.258.939-3.194-.51-4.205m-.429 7.399c-.127.352-.501.907-1.189 1.267m1.618-8.666 10.561-.142m0 0s-.049 2.839.282 4.135c.331 1.295 1.18 3.664 1.18 3.664m0 0c1.684 2.367 1.614 6.588 1.368 8.402m-1.368-8.402c5.539.711 7.495-2.21 7.781-3.76.244-4.215 4.396-7.438 6.441-8.523m3.009 9.106s.017-4.291-.994-5.857a126.817 126.817 0 0 1-2.015-3.249m3.009 9.106 9.913-7.951m-12.922-1.155 6.808-5.405m0 0s1.192 2.447 2.243 3.32c1.218.998 3.871 3.24 3.871 3.24m-6.114-6.56c4.014-5.867 8.372-4.398 10.049-2.93 3.583 3.027 5.463.316 5.956-1.417l.308-3.987m0 0s-2.344-2.572-3.079-2.905c-.734-.332-2.918-1.677-2.918-1.677m5.997 4.582 1.442-7.66m-7.439 3.078 3.163-10.374m0 0 4.276 7.296m-4.276-7.296c.701-2.667 1.282-9.825-3.183-12.091m7.459 19.387c6.273-5.836 5.508-13.417 4.806-17.095m-57.232 51.786c1.388 1.85 1.138 6.524.84 8.63m0 0 2.216-.103 10.201-.917 1.752-.217m29.958-61.471.742-.982c1.13-1.5 4.161-6.372 4.161-6.372s3.774 3.526 4.754 4.627C301.234 115.228 302 117 302 117s.739 1.5.862 2.146" stroke="url(#f)" stroke-width=".5"/>
    <g filter="url(#g)">
      <path d="M257.358 295.885c34.101 1.935 62.374-23.24 63.15-56.232.776-32.992-26.239-61.306-60.34-63.242-34.1-1.936-62.373 23.239-63.149 56.231-.776 32.992 26.239 61.307 60.339 63.243Z" fill="url(#h)"/>
    </g>
    <path d="M257.358 295.885c34.101 1.935 62.374-23.24 63.15-56.232.776-32.992-26.239-61.306-60.34-63.242-34.1-1.936-62.373 23.239-63.149 56.231-.776 32.992 26.239 61.307 60.339 63.243Z" stroke="url(#i)" stroke-width=".5" stroke-miterlimit="10"/>
    <path d="m258.533 226.123-3.805-36.746-18.258 51.411 22.063-14.665Z" fill="url(#j)" stroke="#66C3CD" stroke-width=".2"/>
    <path d="m284.299 235.836-25.766-9.713-3.804-36.746 29.57 46.459Z" fill="url(#k)" stroke="#66C3CD" stroke-width=".2"/>
    <path d="m261.372 253.537-2.839-27.414 25.766 9.712-22.927 17.702Z" fill="url(#l)" stroke="#66C3CD" stroke-width=".2"/>
    <path d="m236.469 240.788 22.063-14.664 2.839 27.414-24.902-12.75Z" fill="url(#m)" stroke="#66C3CD" stroke-width=".2"/>
    <path d="m284.66 239.334-22.928 17.702 2.779 26.831 20.149-44.533Z" fill="url(#n)" stroke="#66C3CD" stroke-width=".2"/>
    <path d="m236.832 244.288 24.901 12.749 2.779 26.831-27.68-39.58Z" fill="url(#o)" stroke="#66C3CD" stroke-width=".2"/>
    <path d="M223.153 69.676c-2.8-2.814-10.48-13.666-18.8-34.567-.4-2.277-2.399-6.832 3.2-8.038 1.334-.268 6.32-.884 15.6-1.206 2.4-.134 7.486.786 9.725 4.001 2.667 3.215 10.114 13.764 17.473 31.77.667 2.547 1.6 7.798 0 8.441-.666.536-4.959 1.93-16.799 3.216-1.733.268-7.999.402-10.399-3.617Z" fill="url(#p)"/>
    <g filter="url(#q)">
      <path fill-rule="evenodd" clip-rule="evenodd" d="M204.356 23.456c1.888-.755 12.079-2.642 23.777-.377 1.583.306 5.234 1.113 8.179 5.284.403-2.718 5.032-3.397 7.297-3.397 8.152 0 13.461 2.264 15.097 3.396 1.628.815 3.549 2.763 5.23 4.78a52.182 52.182 0 0 1 3.451 4.656c4.227 5.737 7.045 11.952 7.925 14.342 5.737 12.078 5.564 18.152 4.557 19.536-.906 3.623-5.815 3.739-7.953 3.487-5.435-.302-12.581-10.19-15.475-15.097l-8.68-20.003h-.755c-.378 0-.982.377-.378 1.887.057.113.147.276.273.505.719 1.304 2.612 4.736 6.144 13.082 1.006 1.761 3.321 7.473 4.529 16.23.251.88-.755 3.773-2.642 5.283-.755.755-2.642 2.642-22.268 4.529-3.02.503-10.266.151-15.097-5.284-1.887-1.761-10.191-12.077-21.136-40.384-.503-1.887-.981-6.34 1.132-9.058.252-.63 1.963-2.19 6.793-3.397Zm18.394 45.408c-2.642-2.642-9.464-12.896-17.314-32.522a16.962 16.962 0 0 0-.214-.967c-.542-2.266-1.34-5.602 3.233-6.581 1.258-.252 5.963-.83 14.719-1.133 2.265-.126 7.322.378 9.436 3.397 2.516 3.02 9.285 13.285 16.229 30.194.629 2.39 1.51 7.322 0 7.926-.629.503-4.68 1.811-15.852 3.02-2.237 0-7.237 0-10.237-3.334Zm23.447-38.938c-2.114 0-1.887 1.51-1.51 2.264 2.718 6.04 10.694 19.626 14.342 25.665 2.114 2.718 4.655 2.39 5.662 1.887 5.132-1.207 6.919-2.516 7.171-3.02-.906-3.924-3.9-9.057-4.907-10.567-3.321-6.944-6.668-11.071-8.303-12.832-.906-1.812-5.662-2.768-7.926-3.02-1.887-.377-3.923-.377-4.529-.377Z" fill="#FDD068"/>
    </g>
    <path d="m228.133 23.079.048-.246-.048.246Zm-23.777.377.06.242.017-.004.015-.006-.092-.232Zm31.956 4.907-.204.144.36.51.092-.618-.248-.037Zm22.394 0-.142.205.014.01.016.008.112-.223Zm5.23 4.779.192-.16-.192.16Zm3.451 4.656-.21.136.004.007.004.005.202-.148Zm7.925 14.342-.234.087.004.01.005.01.225-.107Zm4.557 19.536-.202-.147-.029.04-.011.047.242.06Zm-7.953 3.487.029-.248-.008-.001h-.008l-.013.249Zm-15.475-15.097-.229.1.006.014.008.013.215-.127Zm-8.68-20.003.229-.1-.065-.15h-.164v.25Zm-1.133 1.887-.232.093.004.01.005.009.223-.112Zm.273.505-.219.12.219-.12Zm6.144 13.082-.231.097.006.014.007.013.218-.124Zm4.529 16.23-.248.033.002.018.005.017.241-.069Zm-2.642 5.283-.157-.195-.01.008-.01.01.177.177Zm-22.268 4.529-.024-.249-.009.001-.008.001.041.247Zm-15.097-5.284.187-.166-.008-.009-.009-.008-.17.183Zm-21.136-40.384-.241.064.003.014.005.012.233-.09Zm1.132-9.058.198.153.021-.027.014-.033-.233-.093Zm7.873 9.489-.247.044.005.025.009.024.233-.093Zm17.314 32.522.186-.167-.009-.01-.177.177Zm-17.528-33.489-.245.05.002.009.243-.059Zm0 0 .246-.049-.003-.009-.243.058Zm3.233-6.581-.049-.246-.003.001.052.245Zm14.719-1.133.009.25h.005l-.014-.25Zm9.436 3.397-.205.143.006.01.007.007.192-.16Zm16.229 30.194.242-.064-.004-.016-.007-.015-.231.095Zm0 7.926-.093-.232-.034.013-.029.023.156.196Zm-15.852 3.02v.25h.014l.013-.002-.027-.249Zm11.7-40.008.228-.102-.004-.01-.224.112Zm1.51-2.264v.25-.25Zm12.832 27.93-.214.128.008.013.009.012.197-.154Zm5.662 1.886-.058-.243-.028.006-.026.014.112.223Zm7.171-3.02.223.113.04-.08-.02-.088-.243.056Zm-4.907-10.567-.225.108.007.016.01.015.208-.139Zm-8.303-12.832-.224.111.016.033.025.026.183-.17Zm-7.926-3.02-.049.245.011.003h.01l.028-.248Zm-13.912-1.186-.212.133.004.006.208-.139Zm-8.633-6.284c-5.875-1.137-11.369-1.232-15.632-.947-4.253.283-7.305.946-8.286 1.338l.185.464c.907-.362 3.895-1.02 8.134-1.303 4.229-.283 9.68-.188 15.504.939l.095-.49Zm8.336 5.385c-3.001-4.248-6.729-5.074-8.336-5.385l-.095.491c1.558.302 5.132 1.09 8.022 5.183l.409-.289Zm7.092-3.502c-1.15 0-2.903.171-4.427.692-1.507.515-2.894 1.41-3.117 2.918l.495.073c.179-1.209 1.308-2.013 2.783-2.517 1.457-.498 3.152-.666 4.266-.666v-.5Zm15.239 3.441c-1.686-1.167-7.048-3.441-15.239-3.441v.5c8.113 0 13.37 2.255 14.955 3.352l.284-.411Zm5.28 4.825c-1.681-2.017-3.631-4.003-5.31-4.843l-.224.447c1.577.789 3.469 2.699 5.15 4.716l.384-.32Zm3.468 4.68a52.261 52.261 0 0 0-3.468-4.68l-.384.32a51.894 51.894 0 0 1 3.433 4.632l.419-.272Zm7.951 14.392c-.887-2.409-3.716-8.645-7.959-14.404l-.403.296c4.211 5.715 7.019 11.908 7.893 14.28l.469-.172Zm4.524 19.77c.293-.403.498-1.099.567-2.068.07-.978.004-2.265-.272-3.88-.553-3.23-1.953-7.79-4.828-13.843l-.451.214c2.861 6.025 4.243 10.54 4.786 13.713.272 1.587.332 2.833.266 3.76-.067.937-.262 1.52-.472 1.81l.404.293Zm-8.185 3.587c1.089.128 2.886.164 4.536-.298 1.652-.462 3.206-1.441 3.69-3.376l-.485-.121c-.423 1.688-1.776 2.578-3.34 3.016-1.565.438-3.292.406-4.342.283l-.059.496Zm-15.66-15.218c1.453 2.464 3.973 6.177 6.814 9.316 1.421 1.57 2.928 3.001 4.427 4.062 1.496 1.058 3.008 1.762 4.435 1.841l.027-.499c-1.29-.072-2.71-.716-4.173-1.75-1.459-1.032-2.938-2.436-4.345-3.99-2.814-3.107-5.314-6.791-6.754-9.234l-.431.254Zm-8.695-20.03 8.681 20.003.459-.2-8.681-20.003-.459.2Zm-.525.15h.755v-.5h-.755v.5Zm-.146 1.544c-.292-.732-.265-1.126-.182-1.318a.351.351 0 0 1 .328-.226v-.5a.85.85 0 0 0-.786.528c-.163.374-.135.924.176 1.702l.464-.186Zm.26.477c-.127-.231-.214-.389-.268-.496l-.447.224c.059.118.152.287.277.514l.438-.242Zm6.155 13.105c-3.535-8.354-5.432-11.794-6.155-13.105l-.438.242c.716 1.296 2.605 4.72 6.132 13.058l.461-.194Zm4.546 16.293c-1.211-8.779-3.533-14.523-4.559-16.32l-.435.249c.987 1.726 3.294 7.405 4.499 16.14l.495-.07Zm-2.733 5.513c.984-.787 1.728-1.925 2.195-2.971a7.544 7.544 0 0 0 .494-1.471c.09-.429.117-.825.037-1.106l-.481.138c.046.16.041.455-.045.864-.085.399-.24.874-.462 1.371-.445.998-1.147 2.062-2.051 2.785l.313.39Zm-22.4 4.583c9.817-.944 15.211-1.89 18.251-2.697 1.52-.403 2.459-.775 3.072-1.1.62-.328.899-.606 1.097-.804l-.353-.354c-.179.18-.419.42-.978.717-.567.3-1.468.66-2.967 1.058-2.999.797-8.361 1.739-18.17 2.682l.048.498ZM217.38 76.46c4.909 5.523 12.258 5.876 15.325 5.365l-.082-.494c-2.973.496-10.117.144-14.869-5.203l-.374.332Zm-21.182-40.46c10.949 28.317 19.269 38.676 21.198 40.477l.341-.366c-1.845-1.722-10.131-11.995-21.073-40.291l-.466.18Zm1.168-9.302c-1.101 1.416-1.517 3.268-1.6 4.982-.083 1.717.166 3.328.424 4.294l.483-.128c-.246-.922-.488-2.48-.407-4.142.08-1.663.483-3.397 1.495-4.699l-.395-.307Zm6.929-3.486c-2.432.609-4.09 1.308-5.178 1.942a6.93 6.93 0 0 0-1.236.889c-.284.265-.467.51-.55.716l.465.186c.043-.109.167-.295.426-.537.255-.238.628-.52 1.147-.822 1.037-.604 2.649-1.289 5.047-1.889l-.121-.485Zm.908 13.222c3.929 9.822 7.602 17.302 10.625 22.66 3.02 5.352 5.399 8.6 6.745 9.946l.354-.353c-1.296-1.296-3.649-4.496-6.663-9.839-3.011-5.336-6.675-12.796-10.596-22.6l-.465.186Zm-.224-1.001c.085.354.161.673.21.952l.493-.087c-.053-.297-.133-.632-.216-.982l-.487.117Zm-.002-.01.491-.098-.491.098Zm3.426-6.875c-1.173.251-2.022.658-2.622 1.179a3.425 3.425 0 0 0-1.103 1.814c-.322 1.31.033 2.772.301 3.892l.486-.117c-.274-1.147-.589-2.485-.302-3.655a2.93 2.93 0 0 1 .945-1.556c.52-.452 1.285-.83 2.399-1.068l-.104-.489Zm14.763-1.137c-8.759.302-13.481.88-14.76 1.137l.098.49c1.237-.248 5.925-.826 14.679-1.128l-.017-.5Zm9.649 3.503c-1.106-1.58-2.965-2.482-4.801-2.976-1.841-.495-3.699-.591-4.853-.527l.027.499c1.11-.062 2.913.031 4.696.51 1.787.482 3.513 1.34 4.521 2.78l.41-.286Zm16.255 30.242c-6.95-16.924-13.731-27.214-16.268-30.259l-.384.32c2.495 2.994 9.251 13.235 16.19 30.129l.462-.19Zm-.138 8.253c.501-.2.754-.737.877-1.34.127-.616.137-1.39.082-2.202-.112-1.629-.493-3.476-.81-4.68l-.484.127c.312 1.187.686 3 .795 4.587.054.795.041 1.516-.072 2.069-.117.566-.32.873-.574.975l.186.464Zm-15.918 3.036c5.592-.605 9.407-1.235 11.906-1.778 1.249-.272 2.173-.523 2.826-.739.642-.212 1.053-.399 1.249-.556l-.312-.39c-.118.094-.449.259-1.094.472-.631.208-1.537.455-2.775.724-2.477.538-6.273 1.166-11.854 1.77l.054.497Zm-10.45-3.414c1.548 1.719 3.603 2.57 5.537 2.993 1.934.423 3.768.422 4.886.422v-.5c-1.119 0-2.903 0-4.779-.41-1.875-.41-3.82-1.226-5.272-2.84l-.372.335Zm22.347-36.953c-.177-.353-.295-.844-.166-1.223a.824.824 0 0 1 .395-.465c.22-.125.556-.215 1.057-.215v-.5c-.556 0-.985.099-1.304.28a1.329 1.329 0 0 0-.622.739c-.192.564-.009 1.205.193 1.607l.447-.223Zm14.332 25.647c-3.651-6.043-11.618-19.616-14.328-25.638l-.456.205c2.725 6.055 10.71 19.656 14.356 25.691l.428-.258Zm5.336 1.793c-.914.456-3.321.794-5.352-1.817l-.395.307c2.196 2.823 4.871 2.506 5.97 1.957l-.223-.447Zm7.059-2.908c-.036.073-.157.22-.431.426-.267.2-.66.44-1.209.706-1.099.531-2.81 1.155-5.365 1.756l.115.487c2.578-.607 4.327-1.241 5.467-1.793.57-.275.993-.532 1.292-.756.292-.219.489-.424.578-.602l-.447-.224Zm-4.891-10.317c.497.745 1.492 2.397 2.476 4.352.984 1.956 1.949 4.2 2.395 6.133l.487-.112c-.46-1.992-1.445-4.278-2.436-6.246-.991-1.971-1.997-3.64-2.506-4.405l-.416.278Zm-8.278-12.801c1.619 1.744 4.951 5.85 8.261 12.77l.451-.216c-3.333-6.969-6.694-11.116-8.346-12.894l-.366.34Zm-7.771-2.941c1.121.124 2.86.424 4.426.915.783.245 1.514.536 2.101.872.593.34 1.009.708 1.203 1.096l.447-.224c-.259-.518-.776-.948-1.401-1.306-.63-.36-1.399-.664-2.201-.916-1.604-.503-3.376-.807-4.519-.934l-.056.497Zm-4.501-.376c.606 0 2.62 0 4.48.373l.098-.49c-1.914-.384-3.972-.383-4.578-.383v.5Zm-5.986.956c-.674 0-1.344-.34-1.921-.796a6.308 6.308 0 0 1-1.268-1.357l-.416.277c.264.396.753.983 1.374 1.473.617.487 1.395.903 2.231.903v-.5Zm-3.185-2.147a16.765 16.765 0 0 0-.509-.767l-.409.289c.167.236.332.484.494.743l.424-.265Z" fill="#FDB166"/>
    <mask id="r" style="mask-type:alpha" maskUnits="userSpaceOnUse" x="247" y="33" width="35" height="45">
      <path d="M258.5 36.5 265 33l2.463.779 3.02 1.132 2.264 2.264L273 43.5l-2.5 3L268 49v-.5l-4.688-.757-5.284 4.53 2.642 4.151h6.416L270.5 53.5l5.5-2 .521 1.527L282 56.5l-1 6.5-3.5 3.5-3 2.5-1.5.5 6.5 2.5 1 .5 1.305 1.285c-.754 1.007-2.415 3.02-3.019 3.02-.755 0-6.794.377-7.548.377-.755 0-5.284-1.51-5.662-1.51-.302 0-.377-3.019-.377-4.528h-4.529l-4.152-10.19-3.774-8.682-1.887-4.529-2.642-5.661L247 40.5l3.857-1 7.643-3Z" fill="#C4C4C4"/>
    </mask>
    <g filter="url(#s)" mask="url(#r)">
      <g filter="url(#t)">
        <path d="M295.968 265.801c9.166-12.357 18.001-32.584 20.181-53.572 2.181-20.988-.886-40.744-6.655-54.666-5.769-13.922-14.455-26.641-16.654-30.126-2.257-3.488-4.893-6.422-4.893-6.422s6.582-7.613 8.347-14.428c1.765-6.816-.183-17.095-3.123-21.953-2.937-4.916-8.204-9.803-12.505-12.091-4.301-2.288-7.415-2.828-7.415-2.828s6.499-3.924 13.324-13.888c7.33-10.682 8.818-18.843 8.818-18.843s-6.597 7.9-15.763 12.697c-9.166 4.797-19.193 6.134-19.193 6.134s9.179-6.123 15.721-17.316c7.374-12.584 8.039-21.662 8.039-21.662s-5.363 7.689-18.597 15.58c-11.791 7.056-18.709 7.953-18.709 7.953s-11.815-11.933-26.526-15.504c-14.71-3.571-36.202-2.313-52.224 9.79-16.57 12.532-21.524 26.652-23.685 42.966-2.161 16.314-1.468 27.207-1.468 27.207s-8.81 2.51-20.066 1.809c-11.257-.701-33.862-3.609-56.474-17.196C48.122 78.432 39.113 70.6 30.343 62.665c-8.77-7.934-14.8-15.928-14.8-15.928s-5.172 19.243.822 44.088c7.574 31.176 30.592 44.787 30.592 44.787s-8.958-.154-16.974-3.712c-8.017-3.558-14.874-9.18-14.874-9.18s-1.922 22.678 18.953 41.466c15.548 13.954 37.844 18.286 37.844 18.286s-5.032 2.63-15.504 2.497c-10.878-.158-19.157-4.252-19.157-4.252s6.672 18.769 30.738 31.291c16.536 8.591 37.841 10.784 37.841 10.784S93.545 238.88 66.761 247.6c-21.867 7.122-48.452 4.6-48.452 4.6s16.826 18.305 53.818 22.168c30.858 3.191 56.398-7.28 56.398-7.28s18.177 24.564 53.53 30.748c25.49 4.474 39.724 1.782 63.542-2.679 23.819-4.461 41.207-17.056 50.371-29.356Z" fill="url(#u)"/>
      </g>
      <path d="M295.968 265.801c9.166-12.357 18.001-32.584 20.181-53.572 2.181-20.988-.886-40.744-6.655-54.666-5.769-13.922-14.455-26.641-16.654-30.126-2.257-3.488-4.893-6.422-4.893-6.422s6.582-7.613 8.347-14.428c1.765-6.816-.183-17.095-3.123-21.953-2.937-4.916-8.204-9.803-12.505-12.091-4.301-2.288-7.415-2.828-7.415-2.828s6.499-3.924 13.324-13.888c7.33-10.682 8.818-18.843 8.818-18.843s-6.597 7.9-15.763 12.697c-9.166 4.797-19.193 6.134-19.193 6.134s9.179-6.123 15.721-17.316c7.374-12.584 8.039-21.662 8.039-21.662s-5.363 7.689-18.597 15.58c-11.791 7.056-18.709 7.953-18.709 7.953s-11.815-11.933-26.526-15.504c-14.71-3.571-36.202-2.313-52.224 9.79-16.57 12.532-21.524 26.652-23.685 42.966-2.161 16.314-1.468 27.207-1.468 27.207s-8.81 2.51-20.066 1.809c-11.257-.701-33.862-3.609-56.474-17.196C48.122 78.432 39.113 70.6 30.343 62.665c-8.77-7.934-14.8-15.928-14.8-15.928s-5.172 19.243.822 44.088c7.574 31.176 30.592 44.787 30.592 44.787s-8.958-.154-16.974-3.712c-8.017-3.558-14.874-9.18-14.874-9.18s-1.922 22.678 18.953 41.466c15.548 13.954 37.844 18.286 37.844 18.286s-5.032 2.63-15.504 2.497c-10.878-.158-19.157-4.252-19.157-4.252s6.672 18.769 30.738 31.291c16.536 8.591 37.841 10.784 37.841 10.784S93.545 238.88 66.761 247.6c-21.867 7.122-48.452 4.6-48.452 4.6s16.826 18.305 53.818 22.168c30.858 3.191 56.398-7.28 56.398-7.28s18.177 24.564 53.53 30.748c25.49 4.474 39.724 1.782 63.542-2.679 23.819-4.461 41.207-17.056 50.371-29.356Z" stroke="#009EE3" stroke-opacity=".35" stroke-miterlimit="10" stroke-linejoin="round"/>
      <path d="M307.773 124.423c-.409-.952-2.069-3.31-3.127-4.067a51.705 51.705 0 0 0-1.786-1.21c-.456-.298-1.344-2.088-1.344-2.088s-.284-1.83-1.264-2.931-5.113-4.82-5.113-4.82-2.671 5.065-3.802 6.565l-.741.982c-1.181 1.56-2.712 3.574-2.712 3.574l-7.309 20.049-16.629 12.782-24.995.058-13.925-9.854s-2.996-1.334-3.741-1.493c-.741-.217-1.829-.454-1.829-.454l-19.23-16.368-2.717-1.144-1.938-.576-5.643-3.691-15.061-7.253-3.234-1.231-4.154-3.373-5.06-2.729-14.426-7.216-3.667-14.77 1.139-8.634s-2.601-.15-5.021.58c-2.419.729-4.937 2.149-6.095 3.126-1.101.98-1.903 1.803-1.903 1.803s-4.642 1.065-6.459 3.396c-1.816 2.33-3.503 5.422-3.909 8.415-.405 2.992 1.643 12.68 1.643 12.68l2.479 9.25s1.645 4.619 2.802 5.672c1.099 1.05 3.558 2.642 5.359 2.572 1.799-.011 2.679-.192 2.679-.192l6.047 3.714 14.185 7.376 2.57.671 1.846.165 19.32 9.82 3.523 1.248 1.652.502 15.579 12.328 3.674 2.649.381.428s.671 1.431.981 2.087c.31.656 4.061 2.961 4.061 2.961l15.741 10.54s4.068 2.846 5.458 2.869c1.391.022 4.13-.225 4.13-.225l3.077.933 7.203-.337 2.217-.103 10.2-.917 1.752-.217 1.753-.218 4.819-1.112s3.556.67 4.555.438c1-.232 4.779-1.405 6.239-2.597 1.461-1.191 15.114-11.651 15.114-11.651l2.7-3.555.682-.772s2.308-.795 3.174-1.73c.866-.936 2.326-3.113 2.814-4.535.431-1.425 3.941-14.967 3.941-14.967l1.533-8.437c.231.014.221-3.815-.188-4.766Zm-173.947-21.162c-.635.949-.77 2.276-.77 2.276l-1.836-9.511s.733 3.797 2.097 5.002c1.242.594 2.394.719 2.394.719s-1.254.623-1.885 1.514Zm24.109 14.215c-.434 1.483-.903 5.574-.903 5.574l-11.131-6.039s3.119-1.791 3.649-2.921c.532-1.187.894-4.414.894-4.414l9.576 4.847c-.058-.003-1.651 1.471-2.085 2.953Zm24.809 13.154c-.485 1.364-.645 5.124-.645 5.124l-10.498-5.944s2.153-2.137 2.458-3.395c.363-1.255 1.06-4.289 1.06-4.289l10.525 4.496c.003-.057-2.415 2.644-2.9 4.008Zm23.632 15.463c-.604 1.415-1.064 4.346-1.064 4.346l-9.998-8.583s2.531-1.651 3.064-2.838c.533-1.187 1.479-3.51 1.479-3.51l8.624 7.285c.003-.057-1.501 1.885-2.105 3.3Zm23.462 16.382c-1.034 2.84-.066 6.144-.066 6.144l-11.418-8.086s2.517-2.406 3.029-3.246c.509-.783 1.272-3.928 1.272-3.928l8.258 5.582c.054.061-.04.694-1.075 3.534Zm23.249 5.059c-2.563.2-6.27 2.131-6.27 2.131l.939-3.194-.51-4.205 10.561-.142s-.048 2.839.283 4.134c.331 1.296 1.179 3.665 1.179 3.665s-3.616-2.646-6.182-2.389Zm23.414-.788s.017-4.291-.994-5.858c-1.011-1.566-2.015-3.248-2.015-3.248l6.807-5.405s1.192 2.447 2.243 3.32c1.218.998 3.871 3.24 3.871 3.24l-9.912 7.951Zm20.112-22.845s-2.345-2.572-3.079-2.905c-.735-.332-2.918-1.677-2.918-1.677l3.162-10.374 4.276 7.296-1.441 7.66Z" fill="url(#v)"/>
      <path d="m280.575 140.477 7.309-20.049s1.531-2.014 2.712-3.574m-10.021 23.623-16.629 12.782m16.629-12.782c3.705-3.044 8.238-2.04 10.041-1.158m-26.67 13.94-24.995.058m24.995-.058c-1.527 1.215-4.894 4.691-6.139 8.865m-18.856-8.807-13.925-9.854s-2.996-1.334-3.741-1.493c-.741-.217-1.829-.454-1.829-.454m19.495 11.801c4.595 2.661 7.444 7.075 8.295 8.949m-27.79-20.75-19.23-16.368-2.717-1.144-1.938-.576m23.885 18.088c-2.427-.481-8.021-.898-10.975 1.277m-12.91-19.365-5.643-3.691-15.061-7.253-3.234-1.231m23.938 12.175c3.617 3.225 4.365 9.397 4.286 12.08m-28.224-24.255-4.154-3.373-5.06-2.729-14.426-7.216m23.64 13.318c-2.553-.331-6.453-1.511-11.613 3.27m-12.027-16.588-3.667-14.77m3.667 14.77 2.451 11.741m-6.118-26.511 1.139-8.634s-2.601-.15-5.021.58c-2.419.729-4.937 2.149-6.095 3.126-1.101.98-1.903 1.803-1.903 1.803m11.88 3.125c-6.178 2.55-6.404 7.18-5.744 9.176l2.309 9.389m-8.445-21.69s-4.642 1.065-6.459 3.396c-1.816 2.33-3.503 5.422-3.909 8.415-.405 2.992 1.643 12.68 1.643 12.68l2.479 9.25s1.645 4.619 2.802 5.672c1.099 1.05 3.558 2.642 5.359 2.572 1.799-.011 2.679-.192 2.679-.192m-4.594-41.793c-3.995 4.665-2.162 13.582-1.226 15.986m5.82 25.807 6.047 3.714 14.185 7.376 2.57.671 1.846.165m-24.648-11.926c-2.063-2.54-5.747-9.355-3.984-16.296m28.632 28.222 19.32 9.82 3.523 1.248 1.652.502m-24.495-11.57c6.364.26 9.26-2.524 9.913-3.949m14.582 15.519 15.579 12.328 3.674 2.649.381.428m-19.634-15.405c-1.292-1.409-3.918-5.296-4.084-9.575m23.718 24.98s.671 1.431.981 2.087c.31.656 4.061 2.961 4.061 2.961l15.741 10.54s4.068 2.846 5.458 2.869c1.391.022 4.13-.225 4.13-.225m-30.371-18.232c5.405 2.286 10.61.819 12.537-.201m17.834 18.433 3.077.933 7.203-.337m-10.28-.596c-1.613-1.629-5.155-5.98-6.416-10.347m37.437 8.376-4.819 1.112-1.753.218m6.572-1.33s3.556.67 4.555.438c1-.232 4.779-1.405 6.239-2.597 1.461-1.191 15.114-11.651 15.114-11.651l2.7-3.555.682-.772m-29.29 18.137c9.25-.889 8.704-7.358 9.292-10.249m19.998-7.888s2.308-.795 3.174-1.73c.866-.936 2.326-3.113 2.814-4.535.431-1.425 3.941-14.967 3.941-14.967l1.533-8.437c.231.014.221-3.815-.188-4.766-.409-.952-2.069-3.31-3.127-4.067a51.705 51.705 0 0 0-1.786-1.21m-6.361 39.712c-1.289.579-5.112 1.379-10.086-.063m-153.357-53.258s.135-1.327.77-2.276c.631-.891 1.885-1.514 1.885-1.514m-2.655 3.79-1.836-9.511m0 0s.733 3.797 2.097 5.002c1.242.594 2.394.719 2.394.719m0 0c1.881-.355 4.237-.16 5.18-.017m16.141 21.32s.469-4.091.903-5.574c.434-1.482 2.027-2.956 2.085-2.953m-2.988 8.527-11.131-6.039m11.131 6.039c3.885 2.358 6.92 1.11 7.953.191l3.096-2.758c3.029-1.586 5.235.891 7.038 1.643m-29.218-5.115s3.119-1.791 3.649-2.921c.532-1.187.894-4.414.894-4.414m-4.543 7.335c-1.916-.361-5.696-2.02-5.478-5.767l.755-2.893c.653-1.137.755-2.893.256-4.417l-.543-2.204m9.553 7.946 9.576 4.847m22.079 21.231s.16-3.76.645-5.124c.485-1.364 2.903-4.065 2.9-4.008m-3.545 9.132-10.498-5.944m0 0s2.153-2.137 2.458-3.395c.363-1.255 1.06-4.289 1.06-4.289m0 0 10.525 4.496m0 0c4.853 1.354 5.885 4.815 5.795 6.376-.136 2.341.175 3.73.347 4.132.333 2.368 2.491 4.138 3.528 4.726m9.998 8.583s.46-2.931 1.064-4.346c.604-1.415 2.108-3.357 2.105-3.3m-3.169 7.646-9.998-8.583m9.998 8.583c3.406 3.335 7.102 2.375 8.525 1.479 2.477-2.206 6.911.041 8.818 1.441m-27.341-11.503s2.531-1.651 3.064-2.838c.533-1.187 1.479-3.51 1.479-3.51m0 0 8.624 7.285m21.291 25.826s-.968-3.304.066-6.144c1.035-2.84 1.129-3.473 1.075-3.534m-1.141 9.678-11.418-8.086m0 0s2.517-2.406 3.029-3.246c.509-.783 1.272-3.928 1.272-3.928m0 0 8.258 5.582m0 0 5.784 3.931c1.803 1.329 2.14 3.613 2.084 4.589-.163 2.81 3.309 3.716 5.065 3.818.742.043 1.33-.11 1.782-.347m1.189-1.267s3.707-1.931 6.27-2.131c2.566-.257 6.182 2.389 6.182 2.389m-12.452-.258.939-3.194-.51-4.205m-.429 7.399c-.127.352-.501.907-1.189 1.267m1.618-8.666 10.561-.142m0 0s-.048 2.839.283 4.134c.331 1.296 1.179 3.665 1.179 3.665m0 0c1.684 2.367 1.614 6.587 1.368 8.402m-1.368-8.402c5.539.711 7.496-2.211 7.781-3.76.245-4.215 4.396-7.439 6.442-8.523m3.009 9.106s.017-4.291-.994-5.858c-1.011-1.566-2.015-3.248-2.015-3.248m3.009 9.106 9.912-7.951m-12.921-1.155 6.807-5.405m0 0s1.192 2.447 2.243 3.32c1.218.998 3.871 3.24 3.871 3.24m-6.114-6.56c4.014-5.867 8.372-4.398 10.049-2.931 3.584 3.028 5.464.317 5.956-1.416l.309-3.987m0 0s-2.345-2.572-3.079-2.905c-.735-.332-2.918-1.677-2.918-1.677m5.997 4.582 1.441-7.66m-7.438 3.078 3.162-10.374m0 0 4.276 7.296m-4.276-7.296c.701-2.668 1.282-9.826-3.182-12.091m7.458 19.387c6.273-5.836 5.508-13.417 4.806-17.095m-57.232 51.786c1.388 1.85 1.139 6.524.84 8.63m0 0 2.217-.103 10.2-.917 1.752-.217m29.959-61.471.741-.982c1.131-1.5 3.802-6.565 3.802-6.565s4.133 3.719 5.113 4.82c.98 1.101 1.264 2.931 1.264 2.931s.888 1.79 1.344 2.088" stroke="url(#w)" stroke-width=".5"/>
    </g>
  </g>
  <defs>

    <linearGradient id="b" gradientUnits="userSpaceOnUse" x1="123.29" y1="-184.62" x2="267.09" y2="120.26">
      <animate attributeName="x1" fill="freeze" begin="0ms" dur="15000ms" keyTimes="0;1" repeatCount="indefinite" values="123.29;195.25;"/>
      <animate attributeName="y1" fill="freeze" begin="0ms" dur="15000ms" keyTimes="0;1" repeatCount="indefinite" values="-184.62;-32.47;"/>
      <animate attributeName="x2" fill="freeze" begin="0ms" dur="15000ms" keyTimes="0;1" repeatCount="indefinite" values="267.09;339.05;"/>
      <animate attributeName="y2" fill="freeze" begin="0ms" dur="15000ms" keyTimes="0;1" repeatCount="indefinite" values="120.26;272.41;"/>
      <stop offset="0" stop-opacity="1" stop-color="#DD5789"></stop><stop offset="0.2" stop-opacity="1" stop-color="#DD5789"></stop><stop offset="0.4" stop-opacity="1" stop-color="#FFEF82"></stop><stop offset="0.6" stop-opacity="1" stop-color="#FFEF82"></stop><stop offset="0.8" stop-opacity="1" stop-color="#DD5789"></stop><stop offset="1" stop-opacity="1" stop-color="#DD5789"></stop>
    </linearGradient>


    <linearGradient id="d" x1="63.82" y1="146.902" x2="468.885" y2="300.423" gradientUnits="userSpaceOnUse">
      <stop stop-color="#6CACE4"/>
      <stop offset=".067" stop-color="#6CACE4"/>
      <stop offset=".133" stop-color="#6DADE4"/>
      <stop offset=".2" stop-color="#6FAEE5"/>
      <stop offset=".267" stop-color="#72B0E5"/>
      <stop offset=".333" stop-color="#75B3E6"/>
      <stop offset=".4" stop-color="#79B6E7"/>
      <stop offset=".467" stop-color="#7DB9E8"/>
      <stop offset=".533" stop-color="#82BDEA"/>
      <stop offset=".6" stop-color="#86C0EB"/>
      <stop offset=".667" stop-color="#8AC3EC"/>
      <stop offset=".733" stop-color="#8DC6ED"/>
      <stop offset=".8" stop-color="#90C8ED"/>
      <stop offset=".867" stop-color="#92C9EE"/>
      <stop offset=".933" stop-color="#93CAEE"/>
      <stop offset="1" stop-color="#93CAEE"/>
    </linearGradient>
    <linearGradient id="e" x1="34.517" y1="119.502" x2="105.914" y2="275.04" gradientUnits="userSpaceOnUse">
      <stop stop-color="#FBDA61"/>
      <stop offset="1" stop-color="#FFC371"/>
    </linearGradient>
    <linearGradient id="f" x1="131.764" y1="86.659" x2="285.168" y2="125.509" gradientUnits="userSpaceOnUse">
      <stop offset=".332" stop-color="#FF3767" stop-opacity=".22"/>
      <stop offset=".519" stop-color="#DF804A" stop-opacity=".559"/>
      <stop offset=".771" stop-color="#F5B023" stop-opacity=".81"/>
      <stop offset=".979" stop-color="#FFEB37"/>
    </linearGradient>
    <linearGradient id="h" x1="140.571" y1="231.161" x2="253.412" y2="357.884" gradientUnits="userSpaceOnUse">
      <stop stop-color="#FBDA61"/>
      <stop offset="1" stop-color="#FFC371"/>
    </linearGradient>
    <linearGradient id="i" x1="300.125" y1="303.178" x2="211.925" y2="197.199" gradientUnits="userSpaceOnUse">
      <stop stop-color="#E28466"/>
      <stop offset="1" stop-color="#FFEB37"/>
    </linearGradient>
    <linearGradient id="j" x1="258.533" y1="226.123" x2="240.53" y2="217.376" gradientUnits="userSpaceOnUse">
      <stop stop-color="#fff"/>
      <stop offset="1" stop-color="#EAFDFF"/>
    </linearGradient>
    <linearGradient id="k" x1="258.533" y1="226.123" x2="285.885" y2="205.605" gradientUnits="userSpaceOnUse">
      <stop stop-color="#75C9D3"/>
      <stop offset="1" stop-color="#fff"/>
    </linearGradient>
    <linearGradient id="l" x1="258.594" y1="226.706" x2="273.358" y2="244.043" gradientUnits="userSpaceOnUse">
      <stop stop-color="#0094A4"/>
      <stop offset="1" stop-color="#28BACA"/>
    </linearGradient>
    <linearGradient id="m" x1="258.593" y1="226.707" x2="245.562" y2="254.585" gradientUnits="userSpaceOnUse">
      <stop stop-color="#66C3CD"/>
      <stop offset="1" stop-color="#fff"/>
    </linearGradient>
    <linearGradient id="n" x1="259.56" y1="253.135" x2="275.47" y2="264.457" gradientUnits="userSpaceOnUse">
      <stop stop-color="#0295A5"/>
      <stop offset="1" stop-color="#24B7C7"/>
    </linearGradient>
    <linearGradient id="o" x1="261.733" y1="257.037" x2="245.906" y2="269.287" gradientUnits="userSpaceOnUse">
      <stop stop-color="#66C3CD"/>
      <stop offset="1" stop-color="#fff"/>
    </linearGradient>
    <linearGradient id="p" gradientUnits="userSpaceOnUse" x1="123.29" y1="-184.62" x2="267.09" y2="120.26">
      <animate attributeName="x1" fill="freeze" begin="0ms" dur="15000ms" keyTimes="0;1" repeatCount="indefinite" values="123.29;195.25;"/>
      <animate attributeName="y1" fill="freeze" begin="0ms" dur="15000ms" keyTimes="0;1" repeatCount="indefinite" values="-184.62;-32.47;"/>
      <animate attributeName="x2" fill="freeze" begin="0ms" dur="15000ms" keyTimes="0;1" repeatCount="indefinite" values="267.09;339.05;"/>
      <animate attributeName="y2" fill="freeze" begin="0ms" dur="15000ms" keyTimes="0;1" repeatCount="indefinite" values="120.26;272.41;"/>
      <stop offset="0" stop-opacity="1" stop-color="#DD5789"></stop><stop offset="0.2" stop-opacity="1" stop-color="#DD5789"></stop><stop offset="0.4" stop-opacity="1" stop-color="#FFEF82"></stop><stop offset="0.6" stop-opacity="1" stop-color="#FFEF82"></stop><stop offset="0.8" stop-opacity="1" stop-color="#DD5789"></stop><stop offset="1" stop-opacity="1" stop-color="#DD5789"></stop>
    </linearGradient>



    <linearGradient id="u" x1="63.82" y1="146.902" x2="468.885" y2="300.423" gradientUnits="userSpaceOnUse">
      <stop stop-color="#6CACE4"/>
      <stop offset=".067" stop-color="#6CACE4"/>
      <stop offset=".133" stop-color="#6DADE4"/>
      <stop offset=".2" stop-color="#6FAEE5"/>
      <stop offset=".267" stop-color="#72B0E5"/>
      <stop offset=".333" stop-color="#75B3E6"/>
      <stop offset=".4" stop-color="#79B6E7"/>
      <stop offset=".467" stop-color="#7DB9E8"/>
      <stop offset=".533" stop-color="#82BDEA"/>
      <stop offset=".6" stop-color="#86C0EB"/>
      <stop offset=".667" stop-color="#8AC3EC"/>
      <stop offset=".733" stop-color="#8DC6ED"/>
      <stop offset=".8" stop-color="#90C8ED"/>
      <stop offset=".867" stop-color="#92C9EE"/>
      <stop offset=".933" stop-color="#93CAEE"/>
      <stop offset="1" stop-color="#93CAEE"/>
    </linearGradient>
    <linearGradient id="v" x1="34.516" y1="119.504" x2="105.907" y2="275.038" gradientUnits="userSpaceOnUse">
      <stop stop-color="#FBDA61"/>
      <stop offset="1" stop-color="#FFC371"/>
    </linearGradient>
    <linearGradient id="w" x1="131.763" y1="86.659" x2="285.166" y2="125.509" gradientUnits="userSpaceOnUse">
      <stop offset=".332" stop-color="#FF3767" stop-opacity=".22"/>
      <stop offset=".519" stop-color="#DF804A" stop-opacity=".559"/>
      <stop offset=".771" stop-color="#F5B023" stop-opacity=".81"/>
      <stop offset=".979" stop-color="#FFEB37"/>
    </linearGradient>
    <filter id="a" x=".469" y="3.837" width="333.305" height="309.296" filterUnits="userSpaceOnUse" color-interpolation-filters="sRGB">
      <feFlood flood-opacity="0" result="BackgroundImageFix"/>
      <feColorMatrix in="SourceAlpha" values="0 0 0 0 0 0 0 0 0 0 0 0 0 0 0 0 0 0 127 0" result="hardAlpha"/>
      <feOffset/>
      <feGaussianBlur stdDeviation="6.5"/>
      <feComposite in2="hardAlpha" operator="out"/>
      <feColorMatrix values="0 0 0 0 1 0 0 0 0 1 0 0 0 0 1 0 0 0 0.93 0"/>
      <feBlend in2="BackgroundImageFix" result="effect1_dropShadow_1253_3"/>
      <feBlend in="SourceGraphic" in2="effect1_dropShadow_1253_3" result="shape"/>
    </filter>
    <filter id="c" x="10.469" y="11.837" width="306.385" height="288.296" filterUnits="userSpaceOnUse" color-interpolation-filters="sRGB">
      <feFlood flood-opacity="0" result="BackgroundImageFix"/>
      <feBlend in="SourceGraphic" in2="BackgroundImageFix" result="shape"/>
      <feColorMatrix in="SourceAlpha" values="0 0 0 0 0 0 0 0 0 0 0 0 0 0 0 0 0 0 127 0" result="hardAlpha"/>
      <feOffset dx="-3" dy="-5"/>
      <feGaussianBlur stdDeviation="4.5"/>
      <feComposite in2="hardAlpha" operator="arithmetic" k2="-1" k3="1"/>
      <feColorMatrix values="0 0 0 0 0 0 0 0 0 0 0 0 0 0 0 0 0 0 0.15 0"/>
      <feBlend in2="shape" result="effect1_innerShadow_1253_3"/>
    </filter>
    <filter id="g" x="196.754" y="173.056" width="124.02" height="123.184" filterUnits="userSpaceOnUse" color-interpolation-filters="sRGB">
      <feFlood flood-opacity="0" result="BackgroundImageFix"/>
      <feBlend in="SourceGraphic" in2="BackgroundImageFix" result="shape"/>
      <feColorMatrix in="SourceAlpha" values="0 0 0 0 0 0 0 0 0 0 0 0 0 0 0 0 0 0 127 0" result="hardAlpha"/>
      <feOffset dy="-3"/>
      <feGaussianBlur stdDeviation="2.5"/>
      <feComposite in2="hardAlpha" operator="arithmetic" k2="-1" k3="1"/>
      <feColorMatrix values="0 0 0 0 0.8375 0 0 0 0 0.601205 0 0 0 0 0.286146 0 0 0 0.47 0"/>
      <feBlend in2="shape" result="effect1_innerShadow_1253_3"/>
    </filter>
    <filter id="q" x="195.75" y="17.75" width="84.914" height="66.244" filterUnits="userSpaceOnUse" color-interpolation-filters="sRGB">
      <feFlood flood-opacity="0" result="BackgroundImageFix"/>
      <feBlend in="SourceGraphic" in2="BackgroundImageFix" result="shape"/>
      <feColorMatrix in="SourceAlpha" values="0 0 0 0 0 0 0 0 0 0 0 0 0 0 0 0 0 0 127 0" result="hardAlpha"/>
      <feOffset dy="2"/>
      <feGaussianBlur stdDeviation="2"/>
      <feComposite in2="hardAlpha" operator="arithmetic" k2="-1" k3="1"/>
      <feColorMatrix values="0 0 0 0 1 0 0 0 0 1 0 0 0 0 1 0 0 0 1 0"/>
      <feBlend in2="shape" result="effect1_innerShadow_1253_3"/>
      <feColorMatrix in="SourceAlpha" values="0 0 0 0 0 0 0 0 0 0 0 0 0 0 0 0 0 0 127 0" result="hardAlpha"/>
      <feOffset dy="-4"/>
      <feGaussianBlur stdDeviation="2"/>
      <feComposite in2="hardAlpha" operator="arithmetic" k2="-1" k3="1"/>
      <feColorMatrix values="0 0 0 0 0.704167 0 0 0 0 0.338 0 0 0 0 0 0 0 0 0.4 0"/>
      <feBlend in2="effect1_innerShadow_1253_3" result="effect2_innerShadow_1253_3"/>
    </filter>
    <filter id="s" x="-89.031" y="-85.663" width="511.805" height="488.297" filterUnits="userSpaceOnUse" color-interpolation-filters="sRGB">
      <feFlood flood-opacity="0" result="BackgroundImageFix"/>
      <feColorMatrix in="SourceAlpha" values="0 0 0 0 0 0 0 0 0 0 0 0 0 0 0 0 0 0 127 0" result="hardAlpha"/>
      <feOffset/>
      <feGaussianBlur stdDeviation="51"/>
      <feComposite in2="hardAlpha" operator="out"/>
      <feColorMatrix values="0 0 0 0 1 0 0 0 0 1 0 0 0 0 1 0 0 0 0.42 0"/>
      <feBlend in2="BackgroundImageFix" result="effect1_dropShadow_1253_3"/>
      <feColorMatrix in="SourceAlpha" values="0 0 0 0 0 0 0 0 0 0 0 0 0 0 0 0 0 0 127 0" result="hardAlpha"/>
      <feOffset/>
      <feGaussianBlur stdDeviation="2"/>
      <feComposite in2="hardAlpha" operator="out"/>
      <feColorMatrix values="0 0 0 0 1 0 0 0 0 1 0 0 0 0 1 0 0 0 1 0"/>
      <feBlend in2="effect1_dropShadow_1253_3" result="effect2_dropShadow_1253_3"/>
      <feBlend in="SourceGraphic" in2="effect2_dropShadow_1253_3" result="shape"/>
    </filter>
    <filter id="t" x="9.969" y="11.337" width="307.385" height="289.297" filterUnits="userSpaceOnUse" color-interpolation-filters="sRGB">
      <feFlood flood-opacity="0" result="BackgroundImageFix"/>
      <feBlend in="SourceGraphic" in2="BackgroundImageFix" result="shape"/>
      <feColorMatrix in="SourceAlpha" values="0 0 0 0 0 0 0 0 0 0 0 0 0 0 0 0 0 0 127 0" result="hardAlpha"/>
      <feOffset dx="-3" dy="-5"/>
      <feGaussianBlur stdDeviation="4.5"/>
      <feComposite in2="hardAlpha" operator="arithmetic" k2="-1" k3="1"/>
      <feColorMatrix values="0 0 0 0 0 0 0 0 0 0 0 0 0 0 0 0 0 0 0.15 0"/>
      <feBlend in2="shape" result="effect1_innerShadow_1253_3"/>
    </filter>
  </defs>
</svg>
